# xmcd CD database file
# Copyright (C) 1993-1998 Ti Kan
#
# Track frame offsets:
#	150
#	13905
#	26682
#	38232
#	49642
#	61222
#	73760
#	86740
#
# Disc length: 1317 seconds
#
# Revision: 1
# Processed by: cddbd v1.4b41PL1 Copyright (c) Steve Scherf et al.
# Submitted via: CDValet v3.31 - Copyright (c) 1997 Greg Leichner
#
DISCID=68052308
DTITLE=Ray Price - Ray Price Gold
DYEAR=1900
DGENRE=
TTITLE0=Heartaches By The Number
TTITLE1=Release Me
TTITLE2=My Shoes Keep Walking Back To You
TTITLE3=I've Got A New Heartache
TTITLE4=Crazy Arms
TTITLE5=Don't Let The Stars Get In Your Eyes
TTITLE6=City Lights
TTITLE7=Talk To Your Heart
EXTD=
EXTT0=
EXTT1=
EXTT2=
EXTT3=
EXTT4=
EXTT5=
EXTT6=
EXTT7=
PLAYORDER=
